<svg width="16" height="17" viewBox="0 0 16 17" fill="none" xmlns="http://www.w3.org/2000/svg">
<path d="M16 8.5C16 4.1129 12.3871 0.5 8 0.5C3.58065 0.5 0 4.1129 0 8.5C0 12.9194 3.58065 16.5 8 16.5C12.3871 16.5 16 12.9194 16 8.5ZM7.06452 12.7581C6.87097 12.9516 6.51613 12.9516 6.32258 12.7581L2.96774 9.40323C2.77419 9.20968 2.77419 8.85484 2.96774 8.66129L3.70968 7.95161C3.90323 7.72581 4.22581 7.72581 4.41935 7.95161L6.70968 10.2097L11.5484 5.37097C11.7419 5.14516 12.0645 5.14516 12.2581 5.37097L13 6.08065C13.1935 6.27419 13.1935 6.62903 13 6.82258L7.06452 12.7581Z" fill="#3FBEE5"/>
</svg>
