<svg width="16" height="16" viewBox="0 0 16 16" fill="none" xmlns="http://www.w3.org/2000/svg">
<path d="M16 8C16 3.6129 12.3871 0 8 0C3.58065 0 0 3.6129 0 8C0 12.4194 3.58065 16 8 16C12.3871 16 16 12.4194 16 8ZM7.06452 12.2581C6.87097 12.4516 6.51613 12.4516 6.32258 12.2581L2.96774 8.90323C2.77419 8.70968 2.77419 8.35484 2.96774 8.16129L3.70968 7.45161C3.90323 7.22581 4.22581 7.22581 4.41935 7.45161L6.70968 9.70968L11.5484 4.87097C11.7419 4.64516 12.0645 4.64516 12.2581 4.87097L13 5.58065C13.1935 5.77419 13.1935 6.12903 13 6.32258L7.06452 12.2581Z" fill="#FFC108"/>
</svg>
