<svg width="40" height="40" viewBox="0 0 40 40" fill="none" xmlns="http://www.w3.org/2000/svg">
<circle cx="20" cy="20" r="20" fill="#0A93EB"/>
<path d="M27.8033 22.9417C26.8609 22.3979 25.7982 22.24 24.7469 22.2024C23.8647 22.171 22.5476 21.6059 22.5476 20.0006C22.5476 18.8051 23.5175 17.8415 24.7469 17.7989C25.7982 17.7625 26.8596 17.6046 27.8033 17.0595C29.5263 16.0645 30.5877 14.2262 30.5877 12.2362C30.5877 10.2462 29.5263 8.40788 27.8033 7.4129C26.0802 6.41791 23.9561 6.41791 22.2331 7.4129C20.51 8.40788 19.4486 10.2462 19.4486 12.2362C19.4486 13.3152 19.8321 14.3089 20.3221 15.2299C20.7343 16.0044 20.9424 17.443 19.5301 18.2575C18.4787 18.864 17.1679 18.4806 16.5125 17.4317C15.9586 16.5457 15.2907 15.7162 14.3559 15.1761C12.6328 14.1811 10.5088 14.1811 8.78571 15.1761C7.0614 16.1723 6 18.0119 6 20.0006C6 21.9906 7.0614 23.8289 8.78446 24.8239C10.5075 25.8189 12.6316 25.8189 14.3546 24.8239C15.2895 24.2838 15.9574 23.4555 16.5113 22.5695C16.9649 21.8427 18.099 20.9167 19.5288 21.7425C20.5777 22.349 20.9023 23.6773 20.3208 24.7713C19.8308 25.6923 19.4474 26.6848 19.4474 27.7638C19.4474 29.7537 20.5088 31.5921 22.2318 32.5871C23.9549 33.5821 26.0789 33.5821 27.802 32.5871C29.5251 31.5921 30.5865 29.7537 30.5865 27.7638C30.5877 25.7751 29.5263 23.9367 27.8033 22.9417Z" fill="white"/>
</svg>
