<svg width="40" height="40" viewBox="0 0 40 40" fill="none" xmlns="http://www.w3.org/2000/svg">
<circle cx="20" cy="20" r="20" fill="#3FBEE5"/>
<path d="M26.75 23.2857H24.6964C24.3839 23.2857 24.1607 23.5536 24.1607 23.8214V26.0982H18.7143V20.4286H22.4643C22.7321 20.4286 23 20.2054 23 19.8929V18.1071C23 17.8393 22.7321 17.5714 22.4643 17.5714H18.7143V14.7589C18.7143 13.3304 19.7857 12.2143 21.4375 12.2143C22.5089 12.2143 23.4911 12.7054 24.0268 13.0625C24.25 13.1964 24.5625 13.1518 24.7411 12.9286L25.9911 11.3661C26.1696 11.0982 26.125 10.7857 25.9018 10.5625C25.1875 10.0268 23.5357 9 21.3482 9C17.7321 9 15.1429 11.3661 15.1429 14.625V17.5714H13.8929C13.5804 17.5714 13.3571 17.8393 13.3571 18.1071V19.8929C13.3571 20.2054 13.5804 20.4286 13.8929 20.4286H15.1429V26.1429H13.5357C13.2232 26.1429 13 26.4107 13 26.6786V28.4643C13 28.7768 13.2232 29 13.5357 29H26.75C27.0179 29 27.2857 28.7768 27.2857 28.4643V23.8214C27.2857 23.5536 27.0179 23.2857 26.75 23.2857Z" fill="white"/>
</svg>
