<svg width="40" height="40" viewBox="0 0 40 40" fill="none" xmlns="http://www.w3.org/2000/svg">
<circle cx="20" cy="20" r="20" fill="#A5A8A9"/>
<path d="M19.7251 21.6234L17.8699 27.8839H27.7934C27.8723 27.8841 27.9501 27.9026 28.0207 27.938C28.0912 27.9734 28.1525 28.0248 28.1998 28.0879C28.2471 28.1511 28.279 28.2244 28.2931 28.3021C28.3072 28.3797 28.303 28.4596 28.281 28.5354L27.4181 31.5081C27.3769 31.6501 27.2906 31.7749 27.1723 31.8637C27.054 31.9524 26.9101 32.0002 26.7622 32H11.6051L14.1679 23.3449L11.3333 24.2078L11.9589 22.1843L14.7979 21.3214L18.3962 9.16284C18.4358 9.02036 18.5209 8.89474 18.6385 8.80515C18.7562 8.71556 18.8999 8.66692 19.0477 8.66666H22.8877C22.9665 8.66638 23.0443 8.68439 23.115 8.71928C23.1856 8.75417 23.2472 8.80498 23.2949 8.86772C23.3426 8.93045 23.375 9.0034 23.3897 9.08082C23.4044 9.15823 23.401 9.238 23.3796 9.31385L20.3594 19.5955L23.1941 18.7326L22.5857 20.7907L19.7251 21.6234Z" fill="white"/>
</svg>
