<svg width="40" height="40" viewBox="0 0 40 40" fill="none" xmlns="http://www.w3.org/2000/svg">
<circle cx="20" cy="20" r="20" fill="#F7931A"/>
<path d="M29.8366 17.5905C29.4969 19.6287 28.3929 20.6478 26.8642 20.9875C28.9874 22.0915 30.0065 23.7051 28.9874 26.5926C27.7135 30.1595 24.826 30.4992 20.8345 29.7348L19.9003 33.5565L17.6073 32.962L18.5415 29.2253C18.0319 29.0554 17.1827 28.8856 16.6731 28.7157L15.739 32.5374L13.446 31.9429L14.3801 28.1212C13.8706 27.9514 13.2761 27.7815 12.7666 27.6966L9.70923 26.9323L10.8982 24.2996C10.8982 24.2996 12.5967 24.7242 12.5118 24.7242C13.1912 24.8941 13.5309 24.4694 13.6158 24.1297L15.1445 18.1L16.1636 13.7688C16.2485 13.2592 16.0787 12.6648 15.1445 12.41L13.446 11.9854L14.0404 9.52251L17.2676 10.2868L17.2676 10.3718C17.6922 10.4567 18.2018 10.5416 18.7114 10.7115L19.6455 6.88982L22.0235 7.4843L21.0893 11.221C21.6838 11.306 22.2782 11.4758 22.8727 11.6457L23.8069 7.90892L26.0999 8.5034L25.1657 12.3251C28.1381 13.2592 30.2612 14.7879 29.8366 17.5905ZM24.5712 24.979C25.2506 22.0066 20.24 21.2423 18.7114 20.8176L17.4375 25.9132C18.9661 26.3378 23.8069 27.8665 24.5712 24.979ZM25.2506 17.5905C25.93 14.8728 21.7687 14.1934 20.4099 13.9386L19.3058 18.5246C20.5797 18.8643 24.5712 20.1382 25.2506 17.5905Z" fill="white"/>
</svg>
