<svg width="40" height="40" viewBox="0 0 40 40" fill="none" xmlns="http://www.w3.org/2000/svg">
<path fill-rule="evenodd" clip-rule="evenodd" d="M20 40C8.95375 40 0 31.0462 0 20C0 8.95375 8.95375 0 20 0C31.0462 0 40 8.95375 40 20C40 31.0462 31.0462 40 20 40ZM10 23.755H12.4925C13.8713 28.75 17.1662 31.25 22.375 31.25C24.3562 31.25 26.0637 30.98 27.5 30.44V27.4738C25.9888 28.0913 24.6 28.3987 23.3325 28.3987C21.5588 28.3987 20.1925 28.06 19.2362 27.38C18.2787 26.6987 17.4662 25.4912 16.8 23.755H22.995L23.995 21.2512H16.265C16.2275 20.7787 16.2088 20.2437 16.2088 19.645C16.2088 19.125 16.2325 18.71 16.2787 18.4012H25.1487L26.1625 15.8975H16.885C17.7763 13.0325 19.78 11.6 22.8962 11.6C24.4824 11.5922 26.0519 11.9229 27.5 12.57V9.415C25.9156 8.96525 24.2757 8.74137 22.6288 8.75C17.4288 8.75 14.0875 11.1325 12.6038 15.8975H11.015L10 18.4012H12.1125C12.0636 18.9206 12.0398 19.4421 12.0413 19.9637C12.0413 20.3787 12.055 20.8075 12.0837 21.2512H11.0125L10 23.755Z" fill="#2173D2"/>
</svg>
