<svg width="90" height="80" viewBox="0 0 90 80" fill="none" xmlns="http://www.w3.org/2000/svg">
<path d="M35 40C45.9375 40 55 31.0938 55 20C55 9.0625 45.9375 0 35 0C23.9062 0 15 9.0625 15 20C15 31.0938 23.9062 40 35 40ZM48.9063 45H46.25C42.8125 46.7188 39.0625 47.5 35 47.5C30.9375 47.5 27.0313 46.7188 23.5938 45H20.9375C9.375 45 0 54.5312 0 66.0938V72.5C0 76.7188 3.28125 80 7.5 80H62.5C66.5625 80 70 76.7188 70 72.5V66.0938C70 54.5312 60.4688 45 48.9063 45Z" fill="#3FBEE5"/>
<g style="mix-blend-mode:multiply">
<path fill-rule="evenodd" clip-rule="evenodd" d="M70 60C81.0457 60 90 51.0457 90 40C90 28.9543 81.0457 20 70 20C58.9543 20 50 28.9543 50 40C50 51.0457 58.9543 60 70 60ZM65.2378 28.7619C65.2378 28.1307 65.7495 27.6191 66.3807 27.6191H73.6188C74.25 27.6191 74.7616 28.1307 74.7616 28.7619V35.2381H81.2382C81.8694 35.2381 82.381 35.7497 82.381 36.3809V43.619C82.381 44.2502 81.8694 44.7619 81.2382 44.7619H74.7616V50.2857C74.7616 50.9169 74.25 51.4286 73.6188 51.4286H66.3807C65.7495 51.4286 65.2378 50.9169 65.2378 50.2857V44.7619H59.7144C59.0832 44.7619 58.5715 44.2502 58.5715 43.619V36.3809C58.5715 35.7497 59.0832 35.2381 59.7144 35.2381H65.2378V28.7619Z" fill="#FFC108"/>
</g>
<path fill-rule="evenodd" clip-rule="evenodd" d="M50.6489 45.0726C52.82 53.3779 60.1965 59.5784 69.0833 59.9794C66.5978 51.8897 59.3304 45.7982 50.6489 45.0726Z" fill="white"/>
</svg>
