<svg width="90" height="80" viewBox="0 0 90 80" fill="none" xmlns="http://www.w3.org/2000/svg">
<path fill-rule="evenodd" clip-rule="evenodd" d="M21.4538 0.753353C20.7448 -0.251118 19.2552 -0.251118 18.5462 0.753353L15.8183 4.61843C15.3634 5.26297 14.5383 5.53101 13.7914 5.27698L9.3127 3.75352C8.14874 3.35758 6.9435 4.23324 6.96039 5.46259L7.02528 10.1928C7.03609 10.9817 6.52623 11.6836 5.77264 11.917L1.2538 13.317C0.079406 13.6809 -0.380934 15.0977 0.355273 16.0823L3.18818 19.8711C3.66063 20.5029 3.66063 21.3704 3.18818 22.0022L0.355273 25.791C-0.380934 26.7757 0.079406 28.1925 1.2538 28.5563L5.77264 29.9563C6.52623 30.1898 7.03609 30.8916 7.02528 31.6805L6.96039 36.4108C6.9435 37.6401 8.14874 38.5158 9.3127 38.1198L13.7914 36.5964C14.5383 36.3423 15.3634 36.6104 15.8183 37.2549L18.5462 41.12C19.2552 42.1245 20.7448 42.1245 21.4538 41.12L24.1817 37.255C24.6366 36.6104 25.4617 36.3423 26.2086 36.5964L30.6873 38.1198C31.8513 38.5158 33.0565 37.6401 33.0396 36.4108L32.9747 31.6805C32.9639 30.8916 33.4738 30.1898 34.2274 29.9563L38.7462 28.5563C39.9206 28.1925 40.3809 26.7757 39.6447 25.791L36.8118 22.0022C36.3394 21.3704 36.3394 20.5029 36.8118 19.8711L39.6447 16.0823C40.3809 15.0977 39.9206 13.6809 38.7462 13.317L34.2274 11.917C33.4738 11.6836 32.9639 10.9817 32.9747 10.1928L33.0396 5.46259C33.0565 4.23324 31.8513 3.35758 30.6873 3.75352L26.2086 5.27698C25.4617 5.53101 24.6366 5.26297 24.1817 4.61843L21.4538 0.753353ZM28.3507 14.3396C27.6559 13.6447 26.5291 13.6447 25.8343 14.3396L18.1704 22.0034L14.4719 18.305C13.777 17.61 12.6503 17.61 11.9554 18.305L9.5152 20.7452C8.82027 21.4401 8.82027 22.5668 9.5152 23.2617L16.9121 30.6586C17.6071 31.3535 18.7337 31.3535 19.4287 30.6586L30.791 19.2963C31.4859 18.6014 31.4859 17.4747 30.791 16.7798L28.3507 14.3396Z" fill="#FFC108"/>
<path d="M30 74.4847C30 74.2353 30.1938 74.0331 30.4329 74.0331H89.5671C89.8062 74.0331 90 74.2353 90 74.4847C90 76.9784 88.0618 80 85.671 80H34.329C31.9382 80 30 76.9784 30 74.4847Z" fill="#3FBEE5"/>
<path fill-rule="evenodd" clip-rule="evenodd" d="M38.5714 29.8344C37.2565 29.8344 36.1905 30.9463 36.1905 32.3179V71.0596C36.1905 71.6082 36.6169 72.053 37.1429 72.053H82.8571C83.3831 72.053 83.8095 71.6082 83.8095 71.0596V32.3179C83.8095 30.9463 82.7435 29.8344 81.4286 29.8344H38.5714ZM74.4187 69.1989C74.7046 68.8282 74.6077 68.3671 74.4138 67.445C72.9375 60.422 66.9382 55.1656 59.7618 55.1656C52.5855 55.1656 46.5862 60.422 45.1099 67.445C44.9161 68.3671 44.8192 68.8282 45.1051 69.1989C45.391 69.5695 45.8835 69.5695 46.8686 69.5695H72.6551C73.6402 69.5695 74.1327 69.5695 74.4187 69.1989Z" fill="#3FBEE5"/>
<g style="mix-blend-mode:multiply">
<path d="M55.7851 4.99999C54.6832 4.99999 53.8961 5.90145 53.8961 6.96681V23.357H45.7103C43.9787 23.357 43.1916 25.4877 44.3723 26.717L58.2251 41.1403C58.9335 41.9598 60.1141 41.9598 60.9012 41.1403L74.6753 26.717C75.8559 25.4877 75.0689 23.357 73.3373 23.357H65.2302V6.96681C65.2302 5.90145 64.3644 4.99999 63.3412 4.99999H55.7851Z" fill="#FFC108"/>
</g>
<path fill-rule="evenodd" clip-rule="evenodd" d="M71.6982 29.8345H47.3664L58.2251 41.1403C58.9335 41.9598 60.1141 41.9598 60.9012 41.1403L71.6982 29.8345Z" fill="white"/>
</svg>
