<svg width="90" height="80" viewBox="0 0 90 80" fill="none" xmlns="http://www.w3.org/2000/svg">
<path d="M16.2241 55.0466L2.00916 76.9098C1.14411 78.2403 2.09893 80 3.68591 80H88C89.1046 80 90 79.1046 90 78V8.8453C90 6.71428 87.1114 6.06112 86.1946 7.98485L74.2089 33.134C73.0878 35.4863 70.0528 36.1558 68.0462 34.4934L57.8994 26.0875C55.9099 24.4393 52.903 25.0814 51.7602 27.3985L37.6242 56.0604C36.7056 57.923 34.5143 58.7727 32.5801 58.0164L21.0343 53.5017C19.2674 52.8107 17.2582 53.4561 16.2241 55.0466Z" fill="#FFC108"/>
<path d="M17.348 72.4733L4.51843 77.9259C3.51606 78.3519 3.82043 79.8462 4.90957 79.8462H88C89.1046 79.8462 90 78.9508 90 77.8462V44.5756C90 43.66 89.5818 42.7945 88.8645 42.2254L74.8332 31.0939C73.3612 29.9261 71.1902 30.3835 70.3145 32.0459L55.5486 60.0764C54.7201 61.6492 52.7134 62.1606 51.2332 61.1762L38.2188 52.5217C36.9532 51.6801 35.2581 51.9179 34.273 53.0754L18.4592 71.6567C18.1572 72.0115 17.7768 72.2911 17.348 72.4733Z" fill="#3FBEE5"/>
</svg>
