<svg width="16" height="16" viewBox="0 0 16 16" fill="none" xmlns="http://www.w3.org/2000/svg">
<path d="M7.20019 15.179C6.78598 14.7647 6.78598 14.0932 7.20019 13.679L13.2002 7.67896C13.6144 7.26474 14.286 7.26474 14.7002 7.67896C15.1144 8.09317 15.1144 8.76474 14.7002 9.17896L8.70019 15.179C8.28598 15.5932 7.61441 15.5932 7.20019 15.179Z" fill="#3FBEE5"/>
<path d="M14.7002 9.17896C14.286 9.59317 13.6144 9.59317 13.2002 9.17896L7.20019 3.17896C6.78598 2.76474 6.78598 2.09317 7.20019 1.67896C7.61441 1.26474 8.28598 1.26474 8.70019 1.67896L14.7002 7.67896C15.1144 8.09317 15.1144 8.76474 14.7002 9.17896Z" fill="#3FBEE5"/>
</svg>
